<mxfile modified="2020-10-01T15:34:19.136Z" host="app.diagrams.net" agent="5.0 (Windows NT 10.0; Win64; x64) AppleWebKit/537.36 (KHTML, like Gecko) Chrome/85.0.4183.121 Safari/537.36" etag="7nfkUB_SXM2jAJkBvxqF" version="13.7.5" type="github">
  <diagram id="Ht1M8jgEwFfnCIfOTk4-" name="Page-1">
    <mxGraphModel dx="1038" dy="1358" grid="0" gridSize="10" guides="1" tooltips="1" connect="1" arrows="1" fold="1" page="1" pageScale="1" pageWidth="1169" pageHeight="827" background="none" math="0" shadow="0" extFonts="Permanent Marker^https://fonts.googleapis.com/css?family=Permanent+Marker">
      <root>
        <mxCell id="0" />
        <mxCell id="1" parent="0" />
        <mxCell id="Bd5jHnT_aTsPTi8iD0dO-16" style="edgeStyle=orthogonalEdgeStyle;rounded=0;orthogonalLoop=1;jettySize=auto;html=1;entryX=0;entryY=0.25;entryDx=0;entryDy=0;" parent="1" source="UEzPUAAOIrF-is8g5C7q-184" target="Bd5jHnT_aTsPTi8iD0dO-15" edge="1">
          <mxGeometry relative="1" as="geometry" />
        </mxCell>
        <mxCell id="UEzPUAAOIrF-is8g5C7q-184" value="mongo" style="outlineConnect=0;fontColor=#232F3E;gradientColor=none;fillColor=#BC1356;strokeColor=none;dashed=0;verticalLabelPosition=bottom;verticalAlign=top;align=center;html=1;fontSize=12;fontStyle=0;aspect=fixed;pointerEvents=1;shape=mxgraph.aws4.resources;labelBackgroundColor=#ffffff;" parent="1" vertex="1">
          <mxGeometry x="430" y="-628" width="68" height="78" as="geometry" />
        </mxCell>
        <mxCell id="Bd5jHnT_aTsPTi8iD0dO-1" value="user" style="shape=umlActor;verticalLabelPosition=bottom;verticalAlign=top;html=1;outlineConnect=0;" parent="1" vertex="1">
          <mxGeometry x="200" y="-619" width="30" height="60" as="geometry" />
        </mxCell>
        <mxCell id="Bd5jHnT_aTsPTi8iD0dO-5" style="edgeStyle=orthogonalEdgeStyle;rounded=0;orthogonalLoop=1;jettySize=auto;html=1;exitX=1;exitY=0.25;exitDx=0;exitDy=0;" parent="1" source="Bd5jHnT_aTsPTi8iD0dO-2" target="UEzPUAAOIrF-is8g5C7q-184" edge="1">
          <mxGeometry relative="1" as="geometry" />
        </mxCell>
        <mxCell id="Bd5jHnT_aTsPTi8iD0dO-2" value="Register" style="rounded=1;whiteSpace=wrap;html=1;" parent="1" vertex="1">
          <mxGeometry x="260" y="-620" width="100" height="23" as="geometry" />
        </mxCell>
        <mxCell id="Bd5jHnT_aTsPTi8iD0dO-6" style="edgeStyle=orthogonalEdgeStyle;rounded=0;orthogonalLoop=1;jettySize=auto;html=1;exitX=1;exitY=0.5;exitDx=0;exitDy=0;" parent="1" source="Bd5jHnT_aTsPTi8iD0dO-4" target="UEzPUAAOIrF-is8g5C7q-184" edge="1">
          <mxGeometry relative="1" as="geometry" />
        </mxCell>
        <mxCell id="Bd5jHnT_aTsPTi8iD0dO-4" value="Login" style="rounded=1;whiteSpace=wrap;html=1;" parent="1" vertex="1">
          <mxGeometry x="259" y="-584" width="100" height="23" as="geometry" />
        </mxCell>
        <mxCell id="Bd5jHnT_aTsPTi8iD0dO-10" style="edgeStyle=orthogonalEdgeStyle;rounded=0;orthogonalLoop=1;jettySize=auto;html=1;exitX=0.5;exitY=1;exitDx=0;exitDy=0;" parent="1" source="Bd5jHnT_aTsPTi8iD0dO-9" target="UEzPUAAOIrF-is8g5C7q-184" edge="1">
          <mxGeometry relative="1" as="geometry" />
        </mxCell>
        <mxCell id="Bd5jHnT_aTsPTi8iD0dO-9" value="Authenticate" style="text;html=1;strokeColor=none;fillColor=none;align=center;verticalAlign=middle;whiteSpace=wrap;rounded=0;" parent="1" vertex="1">
          <mxGeometry x="430" y="-670" width="70" height="20" as="geometry" />
        </mxCell>
        <mxCell id="Bd5jHnT_aTsPTi8iD0dO-11" value="" style="pointerEvents=1;shadow=0;dashed=0;html=1;strokeColor=none;labelPosition=center;verticalLabelPosition=bottom;verticalAlign=top;outlineConnect=0;align=center;shape=mxgraph.office.concepts.home_page;fillColor=#DA4026;" parent="1" vertex="1">
          <mxGeometry x="580" y="-650" width="53" height="43" as="geometry" />
        </mxCell>
        <mxCell id="Bd5jHnT_aTsPTi8iD0dO-24" style="edgeStyle=orthogonalEdgeStyle;rounded=0;orthogonalLoop=1;jettySize=auto;html=1;entryX=0.5;entryY=0;entryDx=0;entryDy=0;" parent="1" target="Bd5jHnT_aTsPTi8iD0dO-19" edge="1">
          <mxGeometry relative="1" as="geometry">
            <mxPoint x="604.9950000000001" y="-540" as="sourcePoint" />
          </mxGeometry>
        </mxCell>
        <mxCell id="Bd5jHnT_aTsPTi8iD0dO-15" value="" style="aspect=fixed;perimeter=ellipsePerimeter;html=1;align=center;shadow=0;dashed=0;spacingTop=3;image;image=img/lib/active_directory/home_page.svg;" parent="1" vertex="1">
          <mxGeometry x="570.94" y="-587" width="71.11" height="64" as="geometry" />
        </mxCell>
        <mxCell id="Bd5jHnT_aTsPTi8iD0dO-18" style="edgeStyle=orthogonalEdgeStyle;rounded=0;orthogonalLoop=1;jettySize=auto;html=1;exitX=0.5;exitY=1;exitDx=0;exitDy=0;" parent="1" source="Bd5jHnT_aTsPTi8iD0dO-17" target="Bd5jHnT_aTsPTi8iD0dO-11" edge="1">
          <mxGeometry relative="1" as="geometry" />
        </mxCell>
        <mxCell id="Bd5jHnT_aTsPTi8iD0dO-17" value="User Home Page" style="text;html=1;strokeColor=none;fillColor=none;align=center;verticalAlign=middle;whiteSpace=wrap;rounded=0;" parent="1" vertex="1">
          <mxGeometry x="560" y="-700" width="117" height="20" as="geometry" />
        </mxCell>
        <mxCell id="Bd5jHnT_aTsPTi8iD0dO-19" value="Mongo" style="shape=datastore;whiteSpace=wrap;html=1;" parent="1" vertex="1">
          <mxGeometry x="560" y="-501" width="60" height="60" as="geometry" />
        </mxCell>
        <mxCell id="Bd5jHnT_aTsPTi8iD0dO-22" value="What is on your mind?" style="rounded=1;whiteSpace=wrap;html=1;" parent="1" vertex="1">
          <mxGeometry x="542.25" y="-607" width="128.5" height="20" as="geometry" />
        </mxCell>
        <mxCell id="Bd5jHnT_aTsPTi8iD0dO-27" value="Mongo" style="strokeWidth=2;html=1;shape=mxgraph.flowchart.database;whiteSpace=wrap;" parent="1" vertex="1">
          <mxGeometry x="330" y="-350" width="60" height="60" as="geometry" />
        </mxCell>
        <mxCell id="Bd5jHnT_aTsPTi8iD0dO-29" value="User Information" style="shape=table;startSize=30;container=1;collapsible=1;childLayout=tableLayout;fixedRows=1;rowLines=0;fontStyle=1;align=center;resizeLast=1;" parent="1" vertex="1">
          <mxGeometry x="453" y="-400" width="180" height="160" as="geometry" />
        </mxCell>
        <mxCell id="Bd5jHnT_aTsPTi8iD0dO-30" value="" style="shape=partialRectangle;collapsible=0;dropTarget=0;pointerEvents=0;fillColor=none;top=0;left=0;bottom=1;right=0;points=[[0,0.5],[1,0.5]];portConstraint=eastwest;" parent="Bd5jHnT_aTsPTi8iD0dO-29" vertex="1">
          <mxGeometry y="30" width="180" height="30" as="geometry" />
        </mxCell>
        <mxCell id="Bd5jHnT_aTsPTi8iD0dO-31" value="MO" style="shape=partialRectangle;connectable=0;fillColor=none;top=0;left=0;bottom=0;right=0;fontStyle=1;overflow=hidden;" parent="Bd5jHnT_aTsPTi8iD0dO-30" vertex="1">
          <mxGeometry width="30" height="30" as="geometry" />
        </mxCell>
        <mxCell id="Bd5jHnT_aTsPTi8iD0dO-32" value="UniqueID" style="shape=partialRectangle;connectable=0;fillColor=none;top=0;left=0;bottom=0;right=0;align=left;spacingLeft=6;fontStyle=5;overflow=hidden;" parent="Bd5jHnT_aTsPTi8iD0dO-30" vertex="1">
          <mxGeometry x="30" width="150" height="30" as="geometry" />
        </mxCell>
        <mxCell id="Bd5jHnT_aTsPTi8iD0dO-33" value="" style="shape=partialRectangle;collapsible=0;dropTarget=0;pointerEvents=0;fillColor=none;top=0;left=0;bottom=0;right=0;points=[[0,0.5],[1,0.5]];portConstraint=eastwest;" parent="Bd5jHnT_aTsPTi8iD0dO-29" vertex="1">
          <mxGeometry y="60" width="180" height="30" as="geometry" />
        </mxCell>
        <mxCell id="Bd5jHnT_aTsPTi8iD0dO-34" value="" style="shape=partialRectangle;connectable=0;fillColor=none;top=0;left=0;bottom=0;right=0;editable=1;overflow=hidden;" parent="Bd5jHnT_aTsPTi8iD0dO-33" vertex="1">
          <mxGeometry width="30" height="30" as="geometry" />
        </mxCell>
        <mxCell id="Bd5jHnT_aTsPTi8iD0dO-35" value="Username" style="shape=partialRectangle;connectable=0;fillColor=none;top=0;left=0;bottom=0;right=0;align=left;spacingLeft=6;overflow=hidden;" parent="Bd5jHnT_aTsPTi8iD0dO-33" vertex="1">
          <mxGeometry x="30" width="150" height="30" as="geometry" />
        </mxCell>
        <mxCell id="Bd5jHnT_aTsPTi8iD0dO-36" value="" style="shape=partialRectangle;collapsible=0;dropTarget=0;pointerEvents=0;fillColor=none;top=0;left=0;bottom=0;right=0;points=[[0,0.5],[1,0.5]];portConstraint=eastwest;" parent="Bd5jHnT_aTsPTi8iD0dO-29" vertex="1">
          <mxGeometry y="90" width="180" height="30" as="geometry" />
        </mxCell>
        <mxCell id="Bd5jHnT_aTsPTi8iD0dO-37" value="" style="shape=partialRectangle;connectable=0;fillColor=none;top=0;left=0;bottom=0;right=0;editable=1;overflow=hidden;" parent="Bd5jHnT_aTsPTi8iD0dO-36" vertex="1">
          <mxGeometry width="30" height="30" as="geometry" />
        </mxCell>
        <mxCell id="Bd5jHnT_aTsPTi8iD0dO-38" value="Password" style="shape=partialRectangle;connectable=0;fillColor=none;top=0;left=0;bottom=0;right=0;align=left;spacingLeft=6;overflow=hidden;" parent="Bd5jHnT_aTsPTi8iD0dO-36" vertex="1">
          <mxGeometry x="30" width="150" height="30" as="geometry" />
        </mxCell>
        <mxCell id="Bd5jHnT_aTsPTi8iD0dO-39" value="" style="shape=partialRectangle;collapsible=0;dropTarget=0;pointerEvents=0;fillColor=none;top=0;left=0;bottom=0;right=0;points=[[0,0.5],[1,0.5]];portConstraint=eastwest;" parent="Bd5jHnT_aTsPTi8iD0dO-29" vertex="1">
          <mxGeometry y="120" width="180" height="30" as="geometry" />
        </mxCell>
        <mxCell id="Bd5jHnT_aTsPTi8iD0dO-40" value="" style="shape=partialRectangle;connectable=0;fillColor=none;top=0;left=0;bottom=0;right=0;editable=1;overflow=hidden;" parent="Bd5jHnT_aTsPTi8iD0dO-39" vertex="1">
          <mxGeometry width="30" height="30" as="geometry" />
        </mxCell>
        <mxCell id="Bd5jHnT_aTsPTi8iD0dO-41" value="Status Update" style="shape=partialRectangle;connectable=0;fillColor=none;top=0;left=0;bottom=0;right=0;align=left;spacingLeft=6;overflow=hidden;" parent="Bd5jHnT_aTsPTi8iD0dO-39" vertex="1">
          <mxGeometry x="30" width="150" height="30" as="geometry" />
        </mxCell>
        <mxCell id="Bd5jHnT_aTsPTi8iD0dO-42" value="" style="edgeStyle=orthogonalEdgeStyle;rounded=0;orthogonalLoop=1;jettySize=auto;html=1;" parent="1" source="Bd5jHnT_aTsPTi8iD0dO-36" target="Bd5jHnT_aTsPTi8iD0dO-27" edge="1">
          <mxGeometry relative="1" as="geometry" />
        </mxCell>
        <mxCell id="Bd5jHnT_aTsPTi8iD0dO-46" value="This frame is for a personal Journal or social site called Private Media, the user gets a landing page where they can register if they are first timers or login if re-visiting, for first timers the user inputs username and password and a user is created for them on Mongo&amp;nbsp;" style="text;html=1;strokeColor=none;fillColor=none;align=center;verticalAlign=middle;whiteSpace=wrap;rounded=0;" parent="1" vertex="1">
          <mxGeometry x="760" y="-533" width="301.5" height="83" as="geometry" />
        </mxCell>
        <mxCell id="Bd5jHnT_aTsPTi8iD0dO-47" value="If the user is revisiting then Mongo checks to see that the username and Password match and the the user is taken to a personalized home Page" style="text;html=1;strokeColor=none;fillColor=none;align=center;verticalAlign=middle;whiteSpace=wrap;rounded=0;" parent="1" vertex="1">
          <mxGeometry x="750" y="-441" width="301.5" height="83" as="geometry" />
        </mxCell>
        <mxCell id="Bd5jHnT_aTsPTi8iD0dO-48" value="On the home Page the user is Presented with an input field containing a placeholder text, what is on your mind. The user types in text and clicks post and the entry is saved and displayed with a date and time stamp." style="text;html=1;strokeColor=none;fillColor=none;align=center;verticalAlign=middle;whiteSpace=wrap;rounded=0;" parent="1" vertex="1">
          <mxGeometry x="760" y="-350" width="301.5" height="83" as="geometry" />
        </mxCell>
        <mxCell id="Bd5jHnT_aTsPTi8iD0dO-50" value="&lt;font style=&quot;font-size: 24px&quot;&gt;&amp;nbsp; &amp;nbsp;Private Media&lt;/font&gt;" style="whiteSpace=wrap;html=1;shadow=0;dashed=0;fontSize=10;align=left;fillColor=#1A1A1A;strokeColor=#1A1A1A;fontColor=#FFFFFF;" parent="1" vertex="1">
          <mxGeometry x="440" y="-740" width="187" height="28" as="geometry" />
        </mxCell>
        <mxCell id="Bd5jHnT_aTsPTi8iD0dO-52" value="Being able to upload a profile picture will be a nice to have feature." style="text;html=1;strokeColor=none;fillColor=none;align=center;verticalAlign=middle;whiteSpace=wrap;rounded=0;" parent="1" vertex="1">
          <mxGeometry x="765.75" y="-220" width="294.25" height="30" as="geometry" />
        </mxCell>
        <mxCell id="T1LMtd8Le8KTVsqfEwsI-1" value="&lt;font style=&quot;font-size: 24px&quot;&gt;&amp;nbsp; &amp;nbsp;Private Media&lt;/font&gt;" style="whiteSpace=wrap;html=1;shadow=0;dashed=0;fontSize=10;align=left;fillColor=#1A1A1A;strokeColor=#1A1A1A;fontColor=#FFFFFF;" vertex="1" parent="1">
          <mxGeometry x="827" y="-589" width="187" height="28" as="geometry" />
        </mxCell>
      </root>
    </mxGraphModel>
  </diagram>
</mxfile>
